<svg width="141" height="45" viewBox="0 0 141 45" fill="none" xmlns="http://www.w3.org/2000/svg">
<path d="M15.4 12.6V16.28H9.32V34H4.88V16.28H0.84V12.6H4.88V10.76C4.88 6.2 7.17333 3.92 11.76 3.92H15.36V7.48H12.64C11.4133 7.48 10.52 7.74667 9.96 8.28C9.42667 8.81333 9.16 9.68 9.16 10.88V12.6H15.4ZM16.0566 9.04V4.48H20.6566V9.04H16.0566ZM16.1366 34V12.4H20.5766V34H16.1366ZM35.3188 11.92C37.8254 11.92 39.8121 12.76 41.2787 14.44C42.7721 16.12 43.5188 18.3067 43.5188 21V34H39.0788V21.88C39.0788 19.9333 38.6521 18.4533 37.7988 17.44C36.9721 16.4 35.7454 15.88 34.1188 15.88C32.4388 15.88 31.0521 16.4933 29.9588 17.72C28.8654 18.9467 28.3188 20.52 28.3188 22.44V34H23.8788V12.4H26.9588L27.8388 15.4C28.6654 14.3067 29.7188 13.4533 30.9987 12.84C32.3054 12.2267 33.7454 11.92 35.3188 11.92ZM53.7428 34.52C51.1028 34.52 48.9828 33.8533 47.3828 32.52C45.7828 31.1867 44.9561 29.4 44.9028 27.16H49.2628C49.3161 28.2533 49.7561 29.1067 50.5828 29.72C51.4361 30.3067 52.5428 30.6 53.9028 30.6C54.7028 30.6 55.4095 30.4933 56.0228 30.28C56.6628 30.0667 57.1695 29.7467 57.5428 29.32C57.9161 28.8933 58.1028 28.3867 58.1028 27.8C58.1028 27.4 58.0095 27.0533 57.8228 26.76C57.6361 26.44 57.4095 26.1867 57.1428 26C56.8761 25.8133 56.4895 25.64 55.9828 25.48C55.5028 25.32 55.0628 25.2 54.6628 25.12C54.2895 25.04 53.7828 24.9467 53.1428 24.84C52.4761 24.7333 51.9428 24.64 51.5428 24.56C51.1428 24.48 50.6361 24.36 50.0228 24.2C49.4095 24.0133 48.9028 23.8267 48.5028 23.64C48.1295 23.4267 47.7161 23.16 47.2628 22.84C46.8095 22.52 46.4495 22.16 46.1828 21.76C45.9428 21.36 45.7295 20.88 45.5428 20.32C45.3828 19.7333 45.3028 19.0933 45.3028 18.4C45.3028 16.4533 46.0628 14.88 47.5828 13.68C49.1295 12.48 51.1561 11.88 53.6628 11.88C56.1695 11.88 58.1828 12.5067 59.7028 13.76C61.2228 15.0133 61.9961 16.6933 62.0228 18.8H57.8228C57.7961 17.7867 57.4095 17.0133 56.6628 16.48C55.9161 15.92 54.8895 15.64 53.5828 15.64C52.3561 15.64 51.3828 15.88 50.6628 16.36C49.9428 16.84 49.5828 17.4667 49.5828 18.24C49.5828 18.56 49.6361 18.84 49.7428 19.08C49.8495 19.32 50.0228 19.5333 50.2628 19.72C50.5295 19.9067 50.7695 20.0667 50.9828 20.2C51.2228 20.3067 51.5695 20.4133 52.0228 20.52C52.4761 20.6267 52.8495 20.7067 53.1428 20.76C53.4361 20.8133 53.8628 20.88 54.4228 20.96C55.1428 21.0933 55.6761 21.2 56.0228 21.28C56.3961 21.3333 56.9161 21.4533 57.5828 21.64C58.2495 21.8 58.7695 21.9733 59.1428 22.16C59.5161 22.3467 59.9428 22.6133 60.4228 22.96C60.9295 23.28 61.3028 23.6533 61.5428 24.08C61.8095 24.48 62.0361 24.9867 62.2228 25.6C62.4095 26.2133 62.5028 26.88 62.5028 27.6C62.5028 29.7067 61.7028 31.3867 60.1028 32.64C58.5028 33.8933 56.3828 34.52 53.7428 34.52ZM84.7659 23.24C84.7659 23.64 84.7393 24.1333 84.6859 24.72H67.1659C67.4326 26.4533 68.1526 27.8267 69.3259 28.84C70.5259 29.8533 72.0059 30.36 73.7659 30.36C74.6193 30.36 75.4193 30.24 76.1659 30C76.9126 29.7333 77.5659 29.3733 78.1259 28.92C78.7126 28.44 79.1926 27.8667 79.5659 27.2H84.2459C83.3926 29.4933 82.0326 31.2933 80.1659 32.6C78.2993 33.88 76.1659 34.52 73.7659 34.52C70.5926 34.52 67.9393 33.44 65.8059 31.28C63.6993 29.12 62.6459 26.4267 62.6459 23.2C62.6459 19.9733 63.6993 17.28 65.8059 15.12C67.9393 12.96 70.5926 11.88 73.7659 11.88C75.9259 11.88 77.8459 12.4 79.5259 13.44C81.2059 14.4533 82.4993 15.8267 83.4059 17.56C84.3126 19.2667 84.7659 21.16 84.7659 23.24ZM73.7659 15.88C72.1126 15.88 70.6993 16.3467 69.5259 17.28C68.3793 18.2133 67.6193 19.4933 67.2459 21.12H80.3259C80.0593 20.0267 79.6193 19.0933 79.0059 18.32C78.3926 17.52 77.6326 16.92 76.7259 16.52C75.8459 16.0933 74.8593 15.88 73.7659 15.88ZM97.9203 11.92C100.427 11.92 102.414 12.76 103.88 14.44C105.374 16.12 106.12 18.3067 106.12 21V34H101.68V21.88C101.68 19.9333 101.254 18.4533 100.4 17.44C99.5736 16.4 98.347 15.88 96.7203 15.88C95.0403 15.88 93.6536 16.4933 92.5603 17.72C91.467 18.9467 90.9203 20.52 90.9203 22.44V34H86.4803V12.4H89.5603L90.4403 15.4C91.267 14.3067 92.3203 13.4533 93.6003 12.84C94.907 12.2267 96.347 11.92 97.9203 11.92ZM125.904 4.64H130.344V34H126.984L126.424 31.56C124.344 33.5333 121.798 34.52 118.784 34.52C115.531 34.52 112.838 33.4533 110.704 31.32C108.598 29.16 107.544 26.4533 107.544 23.2C107.544 19.9467 108.598 17.2533 110.704 15.12C112.838 12.96 115.531 11.88 118.784 11.88C121.531 11.88 123.904 12.72 125.904 14.4V4.64ZM114.104 28.28C115.438 29.6133 117.118 30.28 119.144 30.28C121.171 30.28 122.851 29.6133 124.184 28.28C125.544 26.92 126.224 25.2267 126.224 23.2C126.224 21.8667 125.918 20.6667 125.304 19.6C124.691 18.5067 123.838 17.6533 122.744 17.04C121.678 16.4267 120.478 16.12 119.144 16.12C117.811 16.12 116.598 16.4267 115.504 17.04C114.438 17.6533 113.598 18.5067 112.984 19.6C112.398 20.6667 112.104 21.8667 112.104 23.2C112.104 25.2267 112.771 26.92 114.104 28.28ZM133.123 34V28.88H138.003V34H133.123Z" fill="#D8DCE3"/>
</svg>
