<svg width="44" height="12" viewBox="0 0 44 12" fill="none" xmlns="http://www.w3.org/2000/svg">
<path d="M39.5221 0.0022583H31.1232C31.3231 2.67334 33.6206 4.95997 35.999 4.95997H43.8621C44.3159 2.73998 42.7538 0.0022583 39.5221 0.0022583Z" fill="url(#paint0_linear_2301_8142)"/>
<path fill-rule="evenodd" clip-rule="evenodd" d="M4.06319 0.0020477C4.08218 0.00193395 4.10299 0.00157947 4.12544 0.00119691C4.56705 -0.00632787 5.64627 -0.0247172 6.11653 1.56428C6.4494 2.68906 6.97964 4.5315 7.70726 7.0916H8.00359C8.7839 4.39256 9.31993 2.55012 9.61168 1.56428C10.0811 -0.0219375 11.2126 -0.00638728 11.7612 0.00115333C11.7961 0.00163327 11.8287 0.00208076 11.8586 0.00208076L15.7109 0.00208557V11.9997H11.7845V4.92931H11.5212L9.33247 11.9997H6.37839L4.18964 4.92407H3.92635V11.9997H0V0.00208557L4.06319 0.0020477ZM21.3503 0.00225361V7.07792H21.6635L24.3259 1.25965C24.8428 0.101797 25.9443 0.00225361 25.9443 0.00225361H29.7438V11.9999H25.7354V4.92424H25.4222L22.812 10.7425C22.2952 11.8951 21.1415 11.9999 21.1415 11.9999H17.3419V0.00225361H21.3503ZM39.3386 8.4258C41.2826 8.4258 43.0384 7.28973 43.5975 5.70343H31.3233V11.9997H35.135V8.4258H39.3386Z" fill="#327351"/>
<defs>
<linearGradient id="paint0_linear_2301_8142" x1="43.0001" y1="4.95997" x2="31.0001" y2="4.95997" gradientUnits="userSpaceOnUse">
<stop stop-color="#3460D4"/>
<stop offset="1" stop-color="#51ABEC"/>
</linearGradient>
</defs>
</svg>
