<svg width="31" height="20" viewBox="0 0 31 20" fill="none" xmlns="http://www.w3.org/2000/svg">
<path d="M19.6184 2.73364H11.6661V16.8845H19.6184V2.73364Z" fill="#515A68"/>
<path d="M12.1705 10.0002C12.1701 8.63738 12.4824 7.29226 13.0837 6.06637C13.6851 4.84048 14.5597 3.76584 15.6417 2.92353C14.301 1.88021 12.6908 1.23143 10.9953 1.05134C9.29978 0.871248 7.5873 1.16712 6.05356 1.90513C4.51983 2.64314 3.22673 3.79352 2.32205 5.2248C1.41738 6.65607 0.937622 8.31048 0.937622 9.99896C0.937622 11.6874 1.41738 13.3419 2.32205 14.7731C3.22673 16.2044 4.51983 17.3548 6.05356 18.0928C7.5873 18.8308 9.29978 19.1267 10.9953 18.9466C12.6908 18.7665 14.301 18.1177 15.6417 17.0744C14.5592 16.2331 13.6841 15.159 13.0828 13.9334C12.4814 12.7078 12.1694 11.3628 12.1705 10.0002Z" fill="#515A68" stroke="white"/>
<path d="M30.3462 10.0013C30.3462 11.6899 29.8663 13.3444 28.9615 14.7757C28.0566 16.207 26.7633 17.3574 25.2294 18.0953C23.6955 18.8332 21.9828 19.1289 20.2872 18.9485C18.5916 18.7682 16.9814 18.1191 15.6407 17.0754C16.7228 16.2334 17.5977 15.159 18.1992 13.9333C18.8008 12.7077 19.1133 11.3627 19.1133 10C19.1133 8.63727 18.8008 7.29233 18.1992 6.06667C17.5977 4.841 16.7228 3.76662 15.6407 2.92457C16.9816 1.88079 18.592 1.23166 20.2878 1.05141C21.9837 0.871157 23.6965 1.16705 25.2305 1.90526C26.7646 2.64347 28.0578 3.79421 28.9625 5.22589C29.8671 6.65758 30.3466 8.31244 30.3462 10.0013Z" fill="#515A68" stroke="white"/>
</svg>
