<svg width="47" height="18" viewBox="0 0 47 18" fill="none" xmlns="http://www.w3.org/2000/svg">
<path fill-rule="evenodd" clip-rule="evenodd" d="M32.2777 10.6432L31.8272 10.48C31.8045 10.606 31.7681 10.7021 31.7177 10.7682C31.6674 10.8344 31.5931 10.8675 31.4948 10.8675C31.3934 10.8675 31.3148 10.8265 31.2588 10.7445C31.2028 10.6624 31.1748 10.5108 31.1748 10.2897C31.1748 10.1111 31.1983 9.98018 31.2452 9.89679C31.3072 9.7844 31.3964 9.72821 31.5129 9.72821C31.5644 9.72821 31.6109 9.7409 31.6525 9.76628C31.6941 9.79165 31.7293 9.82791 31.758 9.87504C31.7754 9.90314 31.7921 9.94755 31.808 10.0083L32.2618 9.88727C32.2036 9.677 32.1145 9.52111 31.9946 9.4196C31.8747 9.31809 31.71 9.26733 31.5005 9.26733C31.2327 9.26733 31.0256 9.35593 30.8792 9.53312C30.7329 9.71031 30.6597 9.96386 30.6597 10.2938C30.6597 10.5412 30.7013 10.7442 30.7845 10.9028C30.8677 11.0614 30.9666 11.1722 31.0812 11.2352C31.1958 11.2982 31.3435 11.3297 31.5243 11.3297C31.6733 11.3297 31.796 11.3039 31.8925 11.2522C31.9889 11.2006 32.0697 11.124 32.1347 11.0225C32.1998 10.921 32.2474 10.7945 32.2777 10.6432ZM32.6913 9.53924C32.54 9.72051 32.4644 9.97383 32.4644 10.2992C32.4644 10.5321 32.5026 10.7261 32.579 10.8811C32.6554 11.0361 32.755 11.1494 32.8779 11.221C33.0009 11.2926 33.1561 11.3284 33.3437 11.3284C33.5283 11.3284 33.6824 11.2869 33.8061 11.204C33.9298 11.121 34.0243 11.005 34.0898 10.8559C34.1552 10.7068 34.1879 10.5158 34.1879 10.2829C34.1879 9.96205 34.113 9.71258 33.9633 9.53448C33.8135 9.35638 33.6002 9.26733 33.3233 9.26733C33.0532 9.26733 32.8426 9.35797 32.6913 9.53924ZM32.977 10.3019C32.977 10.5031 33.0082 10.6477 33.0706 10.7356C33.1331 10.8235 33.218 10.8675 33.3254 10.8675C33.4358 10.8675 33.5213 10.8244 33.5818 10.7383C33.6423 10.6522 33.6726 10.4977 33.6726 10.2747C33.6726 10.0871 33.641 9.95005 33.5778 9.86349C33.5147 9.77693 33.429 9.73366 33.3208 9.73366C33.2172 9.73366 33.134 9.77761 33.0712 9.86553C33.0084 9.95344 32.977 10.0989 32.977 10.3019ZM35.1348 9.30127H34.4585V11.2943H34.8795V9.77438L35.204 11.2943H35.5841L35.9097 9.77438V11.2943H36.3296V9.30127H35.6556L35.3957 10.514L35.1348 9.30127ZM36.6558 9.30127H37.5102C37.6963 9.30127 37.8356 9.35429 37.9283 9.46033C38.021 9.56638 38.0673 9.71728 38.0673 9.91305C38.0673 10.1143 38.0168 10.2715 37.9158 10.3848C37.8148 10.4981 37.6607 10.5547 37.4534 10.5547H37.172V11.2943H36.6558V9.30127ZM37.2981 10.1511H37.1722V9.70654H37.3185C37.4146 9.70654 37.48 9.7283 37.5148 9.7718C37.5496 9.81531 37.567 9.86833 37.567 9.93087C37.567 9.99522 37.547 10.048 37.5069 10.0892C37.4668 10.1305 37.3972 10.1511 37.2981 10.1511ZM38.3354 9.30127H38.8495V10.8035H39.6517V11.2943H38.3354V9.30127ZM40.4203 9.30137H39.9051V11.2944H40.4203V9.30137ZM41.812 10.9653H41.2265L41.146 11.2943H40.6206L41.2458 9.30127H41.8063L42.4315 11.2943H41.8937L41.812 10.9653ZM41.5212 9.81807L41.705 10.5345H41.3385L41.5212 9.81807ZM42.5991 9.30127H43.0791L43.7054 10.4038V9.30127H44.1899V11.2943H43.7054L43.0825 10.1999V11.2943H42.5991V9.30127ZM45.9781 9.30137H44.4157V9.79352H44.9399V11.2944H45.4539V9.79352H45.9781V9.30137Z" fill="#515A68"/>
<path fill-rule="evenodd" clip-rule="evenodd" d="M22.4052 0L25.4599 6.74015C24.8753 7.53729 22.3212 11.0359 21.4109 12.5509C20.4625 11.396 18.9859 10.5838 18.0045 11.2861C17.1277 11.9136 17.4083 13.1973 18.1643 14.2772L6.23786 18L0.0424805 1.25755L22.4052 0ZM27.5475 11.348L25.9897 11.8342C26.2987 11.2865 26.6681 10.6937 27.0431 10.2351L27.5475 11.348Z" fill="#515A68"/>
<path fill-rule="evenodd" clip-rule="evenodd" d="M23.405 3.28688C23.405 4.1613 22.6461 4.87015 21.7101 4.87015C20.774 4.87015 20.0151 4.1613 20.0151 3.28688C20.0151 2.41247 20.774 1.70361 21.7101 1.70361C22.6461 1.70361 23.405 2.41247 23.405 3.28688ZM23.0972 5.55713H20.3237V12.7295H23.0972V5.55713Z" fill="#FEFEFE"/>
<path d="M18.9545 7.65022C18.9743 7.66178 18.9904 7.65234 18.9904 7.62969V5.81266C18.9904 5.78977 18.9746 5.76204 18.9538 5.75109C18.9538 5.75109 18.5901 5.51629 17.4799 5.45087C17.4206 5.41838 16.4545 5.41361 16.1864 5.45087C12.1529 5.77121 12.0033 8.66132 12.0033 8.79331V9.49544C12.0033 9.58164 12.0033 12.5365 16.1862 12.7985C16.5949 12.8293 17.3956 12.7985 17.4797 12.7985C18.4431 12.7985 19.1107 12.5111 19.1107 12.5111C19.132 12.5026 19.1492 12.4769 19.1492 12.4542V10.753C19.1492 10.7301 19.1338 10.7219 19.1138 10.734C19.1138 10.734 18.8144 10.9724 17.4978 11.0995C17.1245 11.1411 16.9474 11.1216 16.8129 11.0995C14.9461 10.7886 14.8572 9.43395 14.8572 9.43395C14.8546 9.41154 14.8525 9.37471 14.8525 9.35202V8.83309C14.8525 8.81025 14.8547 8.77337 14.8579 8.75091C14.8579 8.75091 14.9841 7.29965 16.8129 7.14658H17.4978C18.3057 7.25463 18.9545 7.65022 18.9545 7.65022Z" fill="#FEFEFE"/>
<path fill-rule="evenodd" clip-rule="evenodd" d="M4.35159 12.742C4.32858 12.742 4.31006 12.7235 4.31006 12.7007L4.31023 5.59411C4.31023 5.57154 4.32906 5.55279 4.35228 5.5528C4.35228 5.5528 7.8348 5.55362 7.85272 5.55279C8.74353 5.51135 11.4493 5.75961 11.4493 8.02207C11.4493 10.8893 7.13665 10.5803 7.13665 10.5803C7.11342 10.579 7.09495 10.5964 7.09495 10.6192V12.7007C7.09495 12.7233 7.07636 12.742 7.05342 12.742H4.35159ZM7.04639 7.11548V8.99084L7.78458 8.991C7.78458 8.991 8.61989 8.95368 8.74375 8.19137C8.75711 8.17389 8.76133 7.85678 8.74385 7.80617C8.669 7.15834 7.70756 7.11548 7.70756 7.11548H7.04639Z" fill="#FEFEFE"/>
<path d="M21.787 16.1921C22.0124 16.1921 22.185 16.1921 22.47 16.0669C23.4547 15.554 26.7694 7.53673 30.2655 5.07074C30.2868 5.05493 30.3154 5.03191 30.3319 5.00849C30.3548 4.97598 30.3558 4.94281 30.3558 4.94281C30.3558 4.94281 30.3558 4.77742 29.8374 4.77742C26.725 4.6934 23.4884 11.1554 21.787 13.7121C21.7657 13.7403 21.6487 13.7121 21.6487 13.7121C21.6487 13.7121 20.5086 12.38 19.5181 11.8688C19.4974 11.8581 19.3847 11.8241 19.2678 11.8327C19.1895 11.8327 18.7287 11.9245 18.5141 12.1489C18.2604 12.414 18.2656 12.5628 18.2678 12.8854C18.268 12.9117 18.285 13.018 18.3165 13.0724C18.5586 13.4918 19.6648 14.9981 20.5712 15.8291C20.7114 15.928 20.9248 16.1921 21.787 16.1921Z" fill="#515A68"/>
<path fill-rule="evenodd" clip-rule="evenodd" d="M38.3341 6.40945L36.6282 6.50128C36.6783 7.00463 36.8934 7.41956 37.2734 7.74606C37.6533 8.07256 38.3368 8.23581 39.3237 8.23581C39.8857 8.23581 40.3515 8.16609 40.7209 8.02664C41.0903 7.8872 41.378 7.68257 41.5838 7.41276C41.7896 7.14294 41.8925 6.84819 41.8925 6.52849C41.8925 6.2564 41.8153 6.0104 41.661 5.79046C41.5066 5.57053 41.2599 5.38631 40.9208 5.23779C40.5817 5.08928 40.0203 4.94247 39.2366 4.79736C38.92 4.74067 38.7194 4.67946 38.635 4.6137C38.5479 4.55022 38.5043 4.47879 38.5043 4.39944C38.5043 4.2906 38.5571 4.19821 38.6627 4.12225C38.7682 4.0463 38.9252 4.00832 39.1337 4.00832C39.387 4.00832 39.5856 4.05933 39.7294 4.16136C39.8732 4.2634 39.9675 4.42664 40.0124 4.65111L41.7025 4.56609C41.6286 4.04913 41.3971 3.67218 41.0079 3.43524C40.6187 3.1983 40.0533 3.07983 39.3118 3.07983C38.7075 3.07983 38.2319 3.14502 37.8849 3.27539C37.5379 3.40577 37.278 3.58489 37.1051 3.81276C36.9323 4.04063 36.8459 4.28267 36.8459 4.53888C36.8459 4.92887 37.0148 5.2497 37.3525 5.50137C37.6877 5.75305 38.2484 5.95484 39.0347 6.10676C39.515 6.19745 39.8211 6.29381 39.953 6.39585C40.085 6.49788 40.1509 6.61351 40.1509 6.74275C40.1509 6.87879 40.0817 6.9984 39.9431 7.10156C39.8046 7.20473 39.6074 7.25631 39.3514 7.25631C39.0084 7.25631 38.7445 7.15541 38.5598 6.95362C38.4463 6.82891 38.3711 6.64752 38.3341 6.40945ZM30.6597 3.16499H33.3235C33.8486 3.16499 34.2728 3.22621 34.596 3.34864C34.9193 3.47108 35.1865 3.6468 35.3976 3.8758C35.6087 4.10481 35.7617 4.37122 35.8567 4.67505C35.9517 4.97888 35.9992 5.30084 35.9992 5.64094C35.9992 6.17377 35.9286 6.587 35.7875 6.88062C35.6463 7.17425 35.4503 7.42025 35.1997 7.61865C34.949 7.81704 34.6798 7.94911 34.3922 8.01487C33.999 8.10556 33.6428 8.15091 33.3235 8.15091H30.6597V3.16499ZM32.4526 4.29415V7.01838H32.892C33.2667 7.01838 33.5332 6.98267 33.6915 6.91125C33.8499 6.83983 33.9739 6.71512 34.0636 6.53714C34.1533 6.35915 34.1982 6.07063 34.1982 5.67157C34.1982 5.14327 34.0979 4.78163 33.8974 4.58664C33.6968 4.39165 33.3643 4.29415 32.8999 4.29415H32.4526Z" fill="#515A68"/>
<path d="M41.894 6.50128L43.5487 6.40945C43.5845 6.64752 43.6575 6.82891 43.7675 6.95362C43.9467 7.15541 44.2026 7.25631 44.5353 7.25631C44.7836 7.25631 44.9749 7.20473 45.1093 7.10156C45.2437 6.9984 45.3108 6.87879 45.3108 6.74275C45.3108 6.61351 45.2469 6.49788 45.1189 6.39585C44.9909 6.29381 44.694 6.19745 44.2282 6.10676C43.4655 5.95484 42.9216 5.75305 42.5966 5.50137C42.269 5.2497 42.1052 4.92887 42.1052 4.53888C42.1052 4.28267 42.189 4.04063 42.3567 3.81276C42.5243 3.58489 42.7764 3.40577 43.113 3.27539C43.4495 3.14502 43.9109 3.07983 44.497 3.07983C45.2162 3.07983 45.7645 3.1983 46.142 3.43524C46.5195 3.67218 46.7441 4.04913 46.8158 4.56609L45.1765 4.65111C45.133 4.42664 45.0415 4.2634 44.902 4.16136C44.7625 4.05933 44.5699 4.00832 44.3242 4.00832C44.122 4.00832 43.9697 4.0463 43.8673 4.12225C43.765 4.19821 43.7138 4.2906 43.7138 4.39944C43.7138 4.47879 43.756 4.55022 43.8405 4.6137C43.9224 4.67946 44.1169 4.74067 44.424 4.79736C45.1842 4.94247 45.7287 5.08928 46.0576 5.23779C46.3864 5.38631 46.6257 5.57053 46.7755 5.79046C46.9252 6.0104 47.0001 6.2564 47.0001 6.52849C47.0001 6.84819 46.9002 7.14294 46.7006 7.41276C46.501 7.68257 46.222 7.8872 45.8637 8.02664C45.5054 8.16609 45.0536 8.23581 44.5085 8.23581C43.5513 8.23581 42.8884 8.07256 42.5198 7.74606C42.1513 7.41956 41.9427 7.00463 41.894 6.50128Z" fill="#515A68"/>
</svg>
