<svg width="52" height="18" viewBox="0 0 52 18" fill="none" xmlns="http://www.w3.org/2000/svg">
<path fill-rule="evenodd" clip-rule="evenodd" d="M48.7488 7.05884C48.7488 6.51035 49.1819 6.06299 49.7007 6.06299C50.2349 6.06299 50.6536 6.51035 50.6536 7.05884C50.6536 7.60732 50.2349 8.05468 49.7007 8.05468C49.1819 8.06897 48.7488 7.62161 48.7488 7.05884ZM49.7007 7.83815C50.1052 7.83815 50.4228 7.49191 50.4228 7.07313C50.4228 6.65434 50.0909 6.3081 49.7007 6.3081C49.2973 6.3081 48.9796 6.65434 48.9796 7.07313C48.9796 7.49191 49.2973 7.83815 49.7007 7.83815ZM49.571 7.5062H49.3687V6.62576H49.7303C49.8018 6.62576 49.8886 6.62576 49.9469 6.66863C50.0183 6.7126 50.048 6.79833 50.048 6.88517C50.048 6.98629 49.9897 7.07313 49.9029 7.1017L50.0623 7.49191H49.8458L49.716 7.14457H49.571V7.5062ZM49.571 7.01487H49.6864C49.7303 7.01487 49.7732 7.01487 49.8018 7.00058C49.8304 6.98629 49.8458 6.94342 49.8458 6.89946C49.8458 6.87088 49.8304 6.82801 49.8018 6.81372C49.7732 6.79833 49.716 6.79833 49.6864 6.79833H49.5852L49.571 7.01487Z" fill="#515A68"/>
<path fill-rule="evenodd" clip-rule="evenodd" d="M35.1092 0.404494L34.8498 2.10821C34.287 1.80484 33.8682 1.68942 33.4209 1.68942C32.237 1.68942 31.3995 2.90181 31.3995 4.61981C31.3995 5.80252 31.9623 6.52467 32.8867 6.52467C33.2758 6.52467 33.7088 6.39497 34.243 6.12017L33.9682 7.91072C33.3769 8.08329 33.0021 8.14155 32.5547 8.14155C30.8367 8.14155 29.7683 6.84233 29.7683 4.7638C29.7683 1.96312 31.2412 0 33.3626 0C33.6363 0 33.8825 0.0285785 34.0847 0.0868344L34.7486 0.260503C34.9212 0.331949 34.9652 0.346238 35.1092 0.404494Z" fill="#515A68"/>
<path fill-rule="evenodd" clip-rule="evenodd" d="M29.811 1.57386C29.7671 1.55957 29.7099 1.55957 29.6517 1.55957C29.1317 1.55957 28.8295 1.83326 28.3381 2.59829L28.4821 1.63102H27.0389L26.0574 7.99631H27.66C28.237 4.09975 28.381 3.43585 29.146 3.43585C29.19 3.43585 29.2043 3.43585 29.2615 3.43585C29.4065 2.67083 29.5934 2.10806 29.8682 1.58815L29.811 1.57386Z" fill="#515A68"/>
<path fill-rule="evenodd" clip-rule="evenodd" d="M20.269 7.91064C19.8359 8.05463 19.4897 8.12607 19.1292 8.12607C18.3213 8.12607 17.8739 7.63584 17.8739 6.72683C17.8739 6.55316 17.8882 6.35091 17.9168 6.14867L18.0179 5.52874L18.0893 5.02312L18.7829 0.678101H20.3701L20.1833 1.61679H21.0054L20.7746 3.16112H19.9656L19.5479 5.81672C19.5336 5.93213 19.5183 6.01897 19.5183 6.07722C19.5183 6.40917 19.6919 6.55316 20.0678 6.55316C20.2547 6.55316 20.3844 6.53887 20.4998 6.496L20.269 7.91064Z" fill="#515A68"/>
<path fill-rule="evenodd" clip-rule="evenodd" d="M13.9761 3.63716C13.9761 4.44615 14.3509 4.99463 15.1885 5.41342C15.8238 5.73108 15.9392 5.8311 15.9392 6.12018C15.9392 6.51039 15.6502 6.69725 15.0291 6.69725C14.5532 6.69725 14.1201 6.6258 13.6002 6.43784L13.3837 7.91073L13.4562 7.92502L13.7453 7.98218C13.8464 7.99646 13.9761 8.02504 14.163 8.04043C14.5389 8.06901 14.8423 8.09759 15.0434 8.09759C16.7185 8.09759 17.4979 7.4194 17.4979 5.97619C17.4979 5.11005 17.1802 4.59014 16.3723 4.20103C15.7084 3.88337 15.6359 3.81083 15.6359 3.50746C15.6359 3.16122 15.8953 2.98865 16.4152 2.98865C16.7328 2.98865 17.1516 3.03152 17.5561 3.08867L17.7869 1.61688C17.3682 1.54434 16.7471 1.48718 16.3866 1.48718C14.5818 1.48718 13.9618 2.45445 13.9761 3.63716Z" fill="#515A68"/>
<path fill-rule="evenodd" clip-rule="evenodd" d="M47.8249 7.98198H46.3091L46.3817 7.36205C45.9486 7.85227 45.4869 8.06881 44.9099 8.06881C43.7404 8.06881 42.9753 7.01471 42.9753 5.42751C42.9753 3.30501 44.1591 1.51556 45.5738 1.51556C46.1937 1.51556 46.6565 1.79035 47.1038 2.38171L47.4501 0.143799H49.023L47.8249 7.98198ZM45.4727 6.4959C46.2234 6.4959 46.7422 5.61547 46.7422 4.34483C46.7422 3.53694 46.4399 3.08847 45.8903 3.08847C45.1693 3.08847 44.6494 3.9843 44.6494 5.22526C44.6494 6.06283 44.9242 6.4959 45.4727 6.4959Z" fill="#515A68"/>
<path fill-rule="evenodd" clip-rule="evenodd" d="M25.3199 7.85237C24.7714 8.02493 24.2526 8.11177 23.6755 8.11177C21.8993 8.11177 20.9617 7.13021 20.9617 5.25393C20.9617 3.05999 22.1444 1.4585 23.747 1.4585C25.0605 1.4585 25.898 2.36751 25.898 3.78214C25.898 4.24379 25.8398 4.70544 25.6958 5.35505H22.5203C22.506 5.45618 22.506 5.50014 22.506 5.5573C22.506 6.30803 22.9819 6.68285 23.9063 6.68285C24.4691 6.68285 24.989 6.55315 25.5661 6.27945L25.3199 7.85237ZM24.4252 4.05583C24.4405 3.92613 24.4405 3.81072 24.4405 3.73817C24.4405 3.21827 24.1657 2.91599 23.6898 2.91599C23.1842 2.91599 22.8237 3.32049 22.6786 4.05583H24.4252Z" fill="#515A68"/>
<path fill-rule="evenodd" clip-rule="evenodd" d="M7.56843 7.98221H5.98123L6.89024 1.96316L4.84029 7.98221H3.75761L3.62791 2.00713L2.66064 7.98221H1.17456L2.41552 0.159424H4.71059L4.76885 5.00896L6.32747 0.159424H8.81049L7.56843 7.98221Z" fill="#515A68"/>
<path fill-rule="evenodd" clip-rule="evenodd" d="M11.6815 5.15316C11.5079 5.13888 11.4364 5.12459 11.321 5.12459C10.4109 5.12459 9.96353 5.45654 9.96353 6.09186C9.96353 6.48206 10.1944 6.74146 10.5406 6.74146C11.1759 6.74146 11.653 6.09186 11.6815 5.15316ZM12.8357 7.98243H11.5079L11.5364 7.31853C11.133 7.85272 10.5988 8.08355 9.86241 8.08355C8.99626 8.08355 8.40491 7.37678 8.40491 6.35126C8.40491 4.79264 9.44362 3.89791 11.2056 3.89791C11.3924 3.89791 11.6233 3.9122 11.8541 3.94078C11.8981 3.72424 11.9124 3.63741 11.9124 3.522C11.9124 3.10431 11.6387 2.94493 10.8879 2.94493C10.4406 2.94493 9.92066 3.01748 9.55904 3.13289L9.35789 3.20434L9.2128 3.2483L9.42933 1.81938C10.2229 1.57427 10.7571 1.47314 11.3353 1.47314C12.706 1.47314 13.4281 2.12275 13.4281 3.33514C13.4281 3.6528 13.3984 3.88362 13.2973 4.60468L12.9807 6.87117L12.9225 7.27566L12.8796 7.59222L12.851 7.82415L12.8357 7.98243Z" fill="#515A68"/>
<path fill-rule="evenodd" clip-rule="evenodd" d="M37.8652 5.1528C37.707 5.13852 37.6201 5.12423 37.5047 5.12423C36.5957 5.12423 36.133 5.45618 36.133 6.0915C36.133 6.4817 36.3649 6.7411 36.7111 6.7411C37.3607 6.7411 37.8367 6.0915 37.8652 5.1528ZM39.0205 7.98207H37.6927L37.7213 7.31817C37.3168 7.85237 36.7826 8.08319 36.0472 8.08319C35.1811 8.08319 34.5886 7.37642 34.5886 6.3509C34.5886 4.79228 35.6284 3.89755 37.3893 3.89755C37.5619 3.89755 37.8081 3.91184 38.0389 3.94042C38.0818 3.72388 38.0961 3.63705 38.0961 3.52164C38.0961 3.10395 37.8224 2.94457 37.0716 2.94457C36.6243 2.94457 36.1044 3.01712 35.7439 3.13253L35.513 3.18969L35.3679 3.23365L35.5845 1.80473C36.3792 1.55962 36.9134 1.4585 37.4904 1.4585C38.8611 1.4585 39.5832 2.10811 39.5832 3.32049C39.5832 3.63705 39.5547 3.86897 39.4535 4.59003L39.1216 6.84223L39.0776 7.24672L39.0348 7.56328L39.0062 7.77982L39.0205 7.98207Z" fill="#515A68"/>
<path fill-rule="evenodd" clip-rule="evenodd" d="M43.479 1.57386C43.435 1.55957 43.3779 1.55957 43.3196 1.55957C42.7997 1.55957 42.4963 1.83326 42.0061 2.59829L42.1512 1.63102H40.7069L39.7253 7.99631H41.3279C41.905 4.09975 42.049 3.43585 42.814 3.43585C42.858 3.43585 42.858 3.43585 42.9305 3.43585C43.0745 2.67083 43.2768 2.10806 43.5362 1.58815L43.479 1.57386Z" fill="#515A68"/>
<path fill-rule="evenodd" clip-rule="evenodd" d="M36.7809 14.1749C36.7809 15.6181 36.3335 16.4699 35.6268 16.4699C35.1069 16.4842 34.8035 15.9071 34.8035 15.0553C34.8035 14.0451 35.2651 12.8899 35.9873 12.8899C36.5787 12.8899 36.7809 13.511 36.7809 14.1749ZM38.3549 14.1891C38.3549 12.5866 37.5602 11.3313 36.0741 11.3313C34.3561 11.3313 33.2449 12.8471 33.2449 15.0839C33.2449 16.6865 33.9088 18 35.5256 18C37.1568 18 38.3549 16.8447 38.3549 14.1891Z" fill="#515A68"/>
<path fill-rule="evenodd" clip-rule="evenodd" d="M33.7517 10.22L33.5055 11.9227C32.9724 11.6204 32.5965 11.5039 32.1777 11.5039C31.0664 11.5039 30.2871 12.7174 30.2871 14.4343C30.2871 15.6181 30.807 16.3402 31.6732 16.3402C32.048 16.3402 32.4525 16.2094 32.9427 15.9357L32.6833 17.7252C32.1348 17.8988 31.7732 17.956 31.3555 17.956C29.7529 17.956 28.7428 16.6579 28.7428 14.5783C28.7428 11.7787 30.1278 9.81555 32.1063 9.81555C32.3657 9.81555 32.5822 9.84413 32.7702 9.90239L33.3758 10.075C33.578 10.1332 33.6209 10.1475 33.7517 10.22Z" fill="#515A68"/>
<path fill-rule="evenodd" clip-rule="evenodd" d="M23.8923 11.3742C23.8495 11.3599 23.7923 11.3599 23.7341 11.3599C23.2438 11.3599 22.969 11.6347 22.5074 12.3986L22.6514 11.4324H21.3093L20.3992 17.7977H21.8863C22.4205 13.9 22.5645 13.2361 23.2724 13.2361C23.3153 13.2361 23.3153 13.2361 23.3878 13.2504C23.5175 12.4854 23.7055 11.9226 23.9506 11.4027L23.8923 11.3742Z" fill="#515A68"/>
<path fill-rule="evenodd" clip-rule="evenodd" d="M43.3493 17.7394H41.9346L42.0072 17.1195C41.6027 17.6097 41.1696 17.8263 40.6211 17.8263C39.5384 17.8263 38.8174 16.7721 38.8174 15.1849C38.8174 13.0635 39.9286 11.273 41.2422 11.273C41.8192 11.273 42.2666 11.5478 42.6711 12.1534L43.003 9.91663H44.4759L43.3493 17.7394ZM41.141 16.239C41.8489 16.239 42.3248 15.3586 42.3248 14.088C42.3248 13.2801 42.05 12.847 41.5312 12.847C40.853 12.847 40.376 13.7274 40.376 14.9827C40.376 15.8203 40.6354 16.239 41.141 16.239Z" fill="#515A68"/>
<path fill-rule="evenodd" clip-rule="evenodd" d="M9.91995 17.711C9.41433 17.8847 8.9241 17.9715 8.38991 17.9715C6.73016 17.9715 5.86401 16.99 5.86401 15.1126C5.86401 12.934 6.97527 11.3171 8.46135 11.3171C9.68912 11.3171 10.4684 12.2119 10.4684 13.6408C10.4684 14.1024 10.4102 14.5641 10.2805 15.2137H7.32151C7.30722 15.3148 7.30722 15.3588 7.30722 15.4159C7.30722 16.1524 7.75459 16.5272 8.62073 16.5272C9.15493 16.5272 9.63087 16.3975 10.1651 16.1238L9.91995 17.711ZM9.08238 13.9145C9.08238 13.7848 9.09667 13.6694 9.09667 13.5979C9.09667 13.078 8.83727 12.7746 8.38991 12.7746C7.91287 12.7746 7.58092 13.1791 7.43693 13.9145H9.08238Z" fill="#515A68"/>
<path fill-rule="evenodd" clip-rule="evenodd" d="M27.6443 17.711C27.1387 17.8847 26.6485 17.9715 26.1143 17.9715C24.4402 17.9715 23.573 16.99 23.573 15.1126C23.573 12.934 24.6854 11.3171 26.1714 11.3171C27.3981 11.3171 28.1928 12.2119 28.1928 13.6408C28.1928 14.1024 28.1346 14.5641 28.0048 15.2137H25.0459C25.0316 15.3148 25.0316 15.3588 25.0316 15.4159C25.0316 16.1524 25.479 16.5272 26.3451 16.5272C26.8793 16.5272 27.3552 16.3975 27.8894 16.1238L27.6443 17.711ZM26.8068 13.9145C26.821 13.7848 26.821 13.6694 26.821 13.5979C26.821 13.078 26.5616 12.7746 26.1143 12.7746C25.6372 12.7746 25.3053 13.1791 25.1613 13.9145H26.8068Z" fill="#515A68"/>
<path fill-rule="evenodd" clip-rule="evenodd" d="M48.4303 17.711C47.9104 17.8847 47.4202 17.9715 46.9003 17.9715C45.2405 17.9715 44.3601 16.99 44.3601 15.1126C44.3601 12.934 45.4714 11.3171 46.9728 11.3171C48.1995 11.3171 48.9788 12.2119 48.9788 13.6408C48.9788 14.1024 48.9206 14.5641 48.7909 15.2137H45.8319C45.8176 15.3148 45.8176 15.3588 45.8176 15.4159C45.8176 16.1524 46.265 16.5272 47.1311 16.5272C47.6653 16.5272 48.1413 16.3975 48.6754 16.1238L48.4303 17.711ZM47.5928 13.9145C47.5928 13.7848 47.6071 13.6694 47.6071 13.5979C47.6071 13.078 47.3476 12.7746 46.9003 12.7746C46.4232 12.7746 46.0924 13.1791 45.9473 13.9145H47.5928Z" fill="#515A68"/>
<path fill-rule="evenodd" clip-rule="evenodd" d="M5.50287 11.6631C5.21489 11.4608 4.8104 11.3025 4.26191 11.3025C3.65517 11.3025 3.17923 11.4322 3.17923 12.0664C3.17923 13.1931 5.37317 12.7743 5.37317 15.1991C5.37317 17.4073 3.92996 17.9855 2.61645 17.9855C2.03939 17.9855 1.3601 17.7975 0.869873 17.5667L1.2304 15.9498C1.53377 16.2246 2.12622 16.4115 2.63074 16.4115C3.10668 16.4115 3.82884 16.2818 3.82884 15.4585C3.82884 14.1747 1.6349 14.6506 1.6349 12.3984C1.6349 10.3353 2.91982 9.72852 4.16079 9.72852C4.85326 9.72852 5.51826 9.82964 5.89308 10.089L5.50287 11.6631Z" fill="#515A68"/>
<path fill-rule="evenodd" clip-rule="evenodd" d="M14.2805 17.7108C13.9771 17.8547 13.5583 17.9559 12.9516 17.9559C11.6535 17.9559 10.8445 16.6577 10.8445 15.0694C10.8445 12.9909 12.014 11.3455 13.7309 11.3455C14.1068 11.3455 14.6839 11.5037 15.1312 11.7642L14.8004 13.28C14.4816 13.0635 14.1497 12.9338 13.8034 12.9338C13.0098 12.9338 12.4328 13.6691 12.4328 14.9683C12.4328 15.7191 12.8516 16.3401 13.5012 16.3401C13.8903 16.3401 14.164 16.2533 14.497 16.0653L14.2805 17.7108Z" fill="#515A68"/>
<path fill-rule="evenodd" clip-rule="evenodd" d="M19.8503 16.1082C19.7788 16.6578 19.7063 17.1909 19.6634 17.7537H18.2345L18.3499 16.7293H18.3356C17.8883 17.4228 17.4266 17.8988 16.6033 17.8988C15.7086 17.8988 15.2173 16.9458 15.2173 15.7191C15.2173 15.2861 15.2459 15.0552 15.3327 14.3913L15.7372 11.4467H17.3398L16.9067 14.4056C16.8627 14.7233 16.8056 15.0409 16.8056 15.3729C16.8056 15.7477 16.9782 16.1236 17.4112 16.0939C18.0608 16.0939 18.451 15.3003 18.5665 14.3628L19.0138 11.4467H20.5581L19.8503 16.1082Z" fill="#515A68"/>
<path fill-rule="evenodd" clip-rule="evenodd" d="M49.9163 17.6824H49.6712V16.6283H49.325V16.3975H50.2625V16.6283H49.9163V17.6824Z" fill="#515A68"/>
<path fill-rule="evenodd" clip-rule="evenodd" d="M51.5189 17.6824H51.288V16.614L51.0715 17.6824H50.8407L50.6241 16.614V17.6824H50.3933V16.3975H50.7538L50.9561 17.4076H50.9704L51.1726 16.3975H51.5189V17.6824Z" fill="#515A68"/>
</svg>
