<svg width="37" height="18" viewBox="0 0 37 18" fill="none" xmlns="http://www.w3.org/2000/svg">
<g clip-path="url(#clip0_2137_9497)">
<path d="M2.81097 6.42182L0.932373 0.651855H1.73748L2.63844 3.48892C2.88764 4.27486 3.09851 4.96495 3.25186 5.65505H3.27103C3.42439 4.98412 3.67359 4.25569 3.92279 3.50809L4.90042 0.651855H5.70554L3.63525 6.42182H2.81097Z" fill="#515A68"/>
<path d="M6.10843 4.48575C6.1276 5.50172 6.77936 5.92345 7.52697 5.92345C8.06371 5.92345 8.38959 5.8276 8.67712 5.71259L8.81131 6.24933C8.54294 6.36434 8.08288 6.49853 7.43112 6.49853C6.14677 6.49853 5.39917 5.65508 5.39917 4.40907C5.39917 3.16306 6.1276 2.16626 7.33527 2.16626C8.69629 2.16626 9.04134 3.35476 9.04134 4.12153C9.04134 4.27489 9.02217 4.3899 9.02217 4.46658L6.10843 4.48575ZM8.31291 3.94901C8.33208 3.46977 8.12121 2.72217 7.25859 2.72217C6.49182 2.72217 6.16594 3.43144 6.10843 3.94901H8.31291Z" fill="#515A68"/>
<path d="M9.63477 3.56549C9.63477 3.08626 9.63477 2.66454 9.59644 2.28115H10.2482L10.2674 3.08626H10.3057C10.4974 2.53035 10.9575 2.1853 11.4559 2.1853C11.5325 2.1853 11.6092 2.1853 11.6667 2.20447V2.91374C11.59 2.89457 11.5134 2.89457 11.4175 2.89457C10.8808 2.89457 10.5166 3.29712 10.4015 3.85303C10.3824 3.94888 10.3632 4.08307 10.3632 4.19808V6.40255H9.6156V3.56549H9.63477Z" fill="#515A68"/>
<path d="M12.9713 1.1118C12.9713 1.361 12.7988 1.57187 12.492 1.57187C12.2237 1.57187 12.032 1.361 12.032 1.1118C12.032 0.843431 12.2237 0.632568 12.5112 0.632568C12.7796 0.632568 12.9713 0.843431 12.9713 1.1118ZM12.1278 2.28113H12.8754V6.42171H12.1278V2.28113Z" fill="#515A68"/>
<path d="M13.8707 6.42179V2.8563H13.2957V2.28122H13.8707V2.08952C13.8707 1.51444 14.0049 0.977702 14.35 0.632654C14.6375 0.364284 15.0017 0.249268 15.3659 0.249268C15.6343 0.249268 15.8643 0.306776 16.0177 0.364284L15.9219 0.939363C15.8068 0.881855 15.6535 0.843517 15.4426 0.843517C14.81 0.843517 14.6375 1.39943 14.6375 2.05118V2.28122H15.6343V2.8563H14.6375V6.42179H13.8707Z" fill="#515A68"/>
<path d="M17.188 1.11192C17.2071 1.36113 17.0154 1.57199 16.7087 1.57199C16.4404 1.57199 16.2487 1.36113 16.2487 1.11192C16.2487 0.843553 16.4404 0.63269 16.7279 0.63269C17.0154 0.63269 17.188 0.843553 17.188 1.11192ZM16.3445 2.28125H17.0921V6.42183H16.3445V2.28125Z" fill="#515A68"/>
<path d="M18.4327 4.48575C18.4518 5.50172 19.1036 5.92345 19.8512 5.92345C20.3879 5.92345 20.7138 5.8276 21.0013 5.71259L21.1355 6.24933C20.8672 6.36434 20.4071 6.49853 19.7553 6.49853C18.471 6.49853 17.7234 5.65508 17.7234 4.40907C17.7234 3.16306 18.4518 2.16626 19.6595 2.16626C21.0205 2.16626 21.3656 3.35476 21.3656 4.12153C21.3656 4.27489 21.3464 4.3899 21.3464 4.46658L18.4327 4.48575ZM20.6371 3.94901C20.6371 3.46977 20.4454 2.72217 19.5828 2.72217C18.816 2.72217 18.4902 3.43144 18.4327 3.94901H20.6371Z" fill="#515A68"/>
<path d="M25.5468 0.345215V5.34841C25.5468 5.71263 25.5468 6.13435 25.5851 6.42189H24.9142L24.8758 5.69346H24.8567C24.6266 6.15352 24.1282 6.49857 23.4381 6.49857C22.4413 6.49857 21.6746 5.65512 21.6746 4.38994C21.6746 3.00975 22.518 2.1663 23.534 2.1663C24.1666 2.1663 24.5883 2.47301 24.78 2.79889H24.7992V0.345215H25.5468ZM24.7992 3.96822C24.7992 3.87237 24.7992 3.73819 24.7608 3.64234C24.6458 3.16311 24.2433 2.76055 23.6682 2.76055C22.8822 2.76055 22.4222 3.45065 22.4222 4.37077C22.4222 5.21422 22.8247 5.90432 23.649 5.90432C24.1474 5.90432 24.6075 5.57844 24.7608 5.00336C24.78 4.90752 24.7992 4.7925 24.7992 4.67748V3.96822Z" fill="#515A68"/>
<path d="M28.325 6.42189C28.3441 6.13435 28.3633 5.71263 28.3633 5.34841V0.345215H29.1109V2.95224H29.1301C29.3984 2.49218 29.8777 2.18547 30.5486 2.18547C31.5837 2.18547 32.3122 3.04809 32.293 4.2941C32.293 5.77013 31.3537 6.51774 30.4336 6.51774C29.8393 6.51774 29.3601 6.28771 29.0534 5.7318H29.0342L28.9959 6.42189H28.325ZM29.1109 4.75416C29.1109 4.85001 29.1301 4.94585 29.1492 5.02253C29.3026 5.5401 29.7243 5.90432 30.2802 5.90432C31.0662 5.90432 31.5454 5.25256 31.5454 4.31327C31.5454 3.48898 31.1237 2.77972 30.3186 2.77972C29.801 2.77972 29.3218 3.12477 29.1684 3.69985C29.1492 3.77652 29.1301 3.89154 29.1301 4.00656V4.75416H29.1109Z" fill="#515A68"/>
<path d="M33.118 2.28125L34.0189 4.73492C34.1148 5.00329 34.2106 5.32917 34.2873 5.57837H34.3065C34.3832 5.32917 34.4598 5.00329 34.5749 4.71575L35.3991 2.28125H36.2042L35.0733 5.23333C34.5365 6.65186 34.1723 7.38029 33.6547 7.82119C33.2905 8.14706 32.9263 8.28125 32.7346 8.30042L32.5429 7.66783C32.7346 7.61032 32.9838 7.49531 33.1947 7.30361C33.4055 7.15026 33.6547 6.84355 33.8272 6.46016C33.8656 6.38349 33.8848 6.32598 33.8848 6.28764C33.8848 6.2493 33.8656 6.19179 33.8272 6.09595L32.2937 2.28125H33.118Z" fill="#515A68"/>
<path d="M13.4315 9.23975L11.1503 15.0097L10.2302 10.1024C10.1152 9.54646 9.69346 9.23975 9.21423 9.23975H5.47621L5.4187 9.48895C6.18547 9.66147 7.04809 9.92984 7.58484 10.2174C7.91071 10.3899 8.00656 10.5433 8.10241 10.965L9.84682 17.7318H12.1855L15.751 9.23975H13.4315Z" fill="#515A68"/>
<path d="M16.689 9.23975L14.8679 17.7318H17.0724L18.8743 9.23975H16.689Z" fill="#515A68"/>
<path d="M21.7701 11.5976C21.7701 11.2909 22.0768 10.965 22.7094 10.8883C23.0161 10.85 23.8979 10.8117 24.8756 11.2717L25.2589 9.46981C24.7222 9.27812 24.0513 9.08643 23.2078 9.08643C21.0417 9.08643 19.5081 10.2366 19.489 11.9043C19.4698 13.1312 20.5816 13.8021 21.4059 14.2046C22.2685 14.6264 22.5561 14.8756 22.5369 15.2589C22.5369 15.834 21.8468 16.0832 21.2334 16.0832C20.1216 16.1024 19.489 15.7765 18.9714 15.5465L18.5688 17.4059C19.0864 17.6359 20.0257 17.8468 21.0034 17.8468C23.3037 17.8468 24.818 16.7158 24.818 14.9331C24.8564 12.7286 21.751 12.5944 21.7701 11.5976Z" fill="#515A68"/>
<path d="M28.1144 14.7223L29.2837 11.5402L29.9355 14.7223H28.1144ZM28.9579 9.23987C28.5361 9.23987 28.1719 9.48907 28.0186 9.85329L24.7214 17.7127H27.0218L27.4818 16.4475H30.2997L30.5681 17.7127H32.6L30.8365 9.2207H28.9579V9.23987Z" fill="#515A68"/>
</g>
<defs>
<clipPath id="clip0_2137_9497">
<rect width="35.7316" height="18" fill="white" transform="translate(0.682373)"/>
</clipPath>
</defs>
</svg>
