<svg width="52" height="16" viewBox="0 0 52 16" fill="none" xmlns="http://www.w3.org/2000/svg">
<path fill-rule="evenodd" clip-rule="evenodd" d="M15.0778 0.298335L10.7855 10.8335L9.0378 1.88027C8.83236 0.881154 8.02518 0.304685 7.13058 0.305391L0.0983478 0.311741L0 0.760498C1.44389 1.0632 3.08448 1.55076 4.07888 2.07431C4.68718 2.39324 4.8613 2.67195 5.06163 3.43187L8.36903 15.7769L12.7364 15.7734L19.4182 0.294807L15.0778 0.298335ZM21.1934 0.29259L17.7891 15.769L21.9219 15.7655L25.324 0.289062L21.1934 0.29259ZM44.8902 4.45221L46.1469 10.2613L42.7185 10.2642L44.8902 4.45221ZM44.2795 0.273059C43.4869 0.273765 42.8196 0.722521 42.5224 1.40906L36.3359 15.7523L40.6727 15.7488L41.5338 13.438L46.8337 13.4331L47.3363 15.7432L51.1588 15.7396L47.8091 0.269531L44.2795 0.273059ZM26.4549 5.11978C26.4279 7.34804 28.5086 8.58988 30.0756 9.32793C31.6863 10.085 32.2268 10.5712 32.221 11.2493C32.2108 12.2872 30.9388 12.7472 29.7492 12.7656C27.6722 12.7987 26.4651 12.2251 25.5049 11.7919L24.7597 15.1829C25.7228 15.6119 27.5069 15.9845 29.3558 16C33.6962 15.9958 36.533 13.9185 36.5461 10.701C36.5585 6.61775 30.7101 6.3969 30.7487 4.57224C30.7618 4.01835 31.306 3.42777 32.5015 3.27607C33.093 3.19916 34.7249 3.13989 36.5767 3.96402L37.2994 0.683723C36.3043 0.333749 35.0243 -0.00140674 33.4318 4.44065e-06C29.3471 0.0035324 26.4753 2.10902 26.4549 5.11978Z" fill="#515A68"/>
</svg>
