<svg width="40" height="12" viewBox="0 0 40 12" fill="none" xmlns="http://www.w3.org/2000/svg">
<path fill-rule="evenodd" clip-rule="evenodd" d="M12.2476 0.22395L9.02838 8.12534L7.71762 1.4104C7.56354 0.661064 6.95816 0.228713 6.28721 0.229242L1.01303 0.234005L0.93927 0.570572C2.02219 0.797596 3.25263 1.16327 3.99843 1.55593C4.45466 1.79513 4.58524 2.00416 4.7355 2.5741L7.21605 11.8329L10.4916 11.8302L15.5029 0.221304L12.2476 0.22395ZM16.8338 0.219443L14.2806 11.8268L17.3802 11.8241L19.9318 0.216797L16.8338 0.219443ZM34.6071 3.33894L35.5496 7.6958L32.9783 7.69791L34.6071 3.33894ZM34.1476 0.204794C33.5531 0.205324 33.0526 0.541891 32.8297 1.0568L28.1899 11.8142L31.4424 11.8116L32.0883 10.0785L36.0632 10.0748L36.4402 11.8074L39.307 11.8047L36.7948 0.202148L34.1476 0.204794ZM20.7822 3.83983C20.762 5.51103 22.3224 6.44241 23.4977 6.99594C24.7057 7.56377 25.1111 7.92838 25.1068 8.43694C25.0991 9.21538 24.1452 9.56042 23.2529 9.57418C21.6952 9.59905 20.7899 9.16881 20.0697 8.84389L19.5108 11.3872C20.2331 11.7089 21.5712 11.9884 22.9579 12C26.2132 11.9968 28.3408 10.4389 28.3506 8.02576C28.3599 4.96331 23.9736 4.79767 24.0025 3.42918C24.0124 3.01376 24.4205 2.57083 25.3171 2.45705C25.7608 2.39937 26.9847 2.35492 28.3736 2.97301L28.9156 0.512792C28.1692 0.250312 27.2092 -0.00105506 26.0149 3.33049e-06C22.9513 0.0026493 20.7975 1.58176 20.7822 3.83983Z" fill="#00378C"/>
</svg>
