<svg width="48" height="17" viewBox="0 0 48 17" fill="none" xmlns="http://www.w3.org/2000/svg">
<path d="M20.8083 16.0453H16.8928L19.3395 0.773804L23.2549 0.773804L20.8083 16.0453Z" fill="#1434CB"/>
<path d="M13.5975 0.773804L9.86309 11.2775L9.42044 9.01419L8.10456 2.13426C8.10456 2.13426 7.94359 0.773804 6.24542 0.773804L0.072434 0.773804L0 1.03119C1.44502 1.39956 2.82637 1.98918 4.09654 2.77977L7.50094 16.0453H11.5814L17.8107 0.773804L13.5975 0.773804Z" fill="#1434CB"/>
<path d="M44.4026 16.045H48.0002L44.8654 0.773556L41.7145 0.773556C41.3331 0.743805 40.9523 0.83828 40.6274 1.04326C40.3024 1.24824 40.0504 1.55304 39.9077 1.9134L34.0647 16.045H38.1492L38.954 13.7776L43.9439 13.7776L44.4026 16.045ZM40.0928 10.644L42.1532 4.92439L43.3081 10.644H40.0928Z" fill="#1434CB"/>
<path d="M34.3696 4.44656L34.9289 1.17819C33.7984 0.762852 32.6096 0.533893 31.4078 0.5C29.4642 0.5 24.8485 1.36203 24.8485 5.55781C24.8485 9.50437 30.265 9.5534 30.265 11.6247C30.265 13.6961 25.4079 13.3243 23.8022 12.0333L23.2187 15.4446C24.6191 16.0419 26.1266 16.3369 27.6453 16.3108C30.3173 16.3108 34.3494 14.9054 34.3494 11.0814C34.3494 7.11029 28.8847 6.73851 28.8847 5.01444C28.8847 3.29038 32.6955 3.50691 34.3696 4.44656Z" fill="#1434CB"/>
<path d="M9.42044 9.01828L8.10456 2.13426C8.10456 2.13426 7.94359 0.773804 6.24542 0.773804L0.072434 0.773804L0 1.03119C2.12591 1.58146 4.1095 2.59186 5.81484 3.99315C7.43361 5.31467 8.67785 7.04877 9.42044 9.01828Z" fill="#1434CB"/>
</svg>
