<svg width="26" height="16" viewBox="0 0 26 16" fill="none" xmlns="http://www.w3.org/2000/svg">
<path d="M16.5291 1.71143H9.62292V14.2887H16.5291V1.71143Z" fill="#FF5F00"/>
<path d="M10.0634 8.00037C10.0634 5.44492 11.2473 3.17835 13.067 1.71174C11.7296 0.645119 10.0414 0.000701904 8.1998 0.000701904C3.83684 0.000701904 0.307007 3.57833 0.307007 8.00037C0.307007 12.4224 3.83684 16 8.1998 16C10.0414 16 11.7296 15.3556 13.067 14.289C11.2473 12.8224 10.0634 10.5558 10.0634 8.00037Z" fill="#EB001B"/>
<path d="M25.8475 7.99966C25.8475 12.4217 22.3177 15.9993 17.9547 15.9993C16.1131 15.9993 14.4249 15.3549 13.0875 14.2883C14.9292 12.8217 16.0912 10.5551 16.0912 7.99966C16.0912 5.44421 14.9073 3.17764 13.0875 1.71104C14.4249 0.644417 16.1131 0 17.9547 0C22.3177 0 25.8475 3.57763 25.8475 7.99966Z" fill="#F79E1B"/>
<path d="M25.1019 12.9555V12.6888H25.2115V12.6444H24.9484V12.6888H25.058V12.9555H25.1019ZM25.6062 12.9555V12.6444H25.5185L25.4308 12.8666L25.3431 12.6444H25.2554V12.9555H25.3211V12.7111L25.4088 12.911H25.4746L25.5623 12.7111V12.9555H25.6062Z" fill="#F79E1B"/>
</svg>
